<?xml version="1.0" encoding="utf-8"?>
<!-- Generator: Adobe Illustrator 26.0.3, SVG Export Plug-In . SVG Version: 6.00 Build 0)  -->
<svg version="1.1" id="Layer_1" xmlns="http://www.w3.org/2000/svg" xmlns:xlink="http://www.w3.org/1999/xlink" x="0px" y="0px"
	 viewBox="0 0 14.7 13.3" style="enable-background:new 0 0 14.7 13.3;" xml:space="preserve">
<style type="text/css">
	.st0{fill:#FFFFFF;}
</style>
<path class="st0" d="M3.4,7.7l4,4c0.2,0.2,0.3,0.4,0.3,0.7c0,0.3-0.1,0.5-0.3,0.7c-0.2,0.2-0.4,0.3-0.7,0.3c-0.3,0-0.5-0.1-0.7-0.3
	L0.3,7.4C0.2,7.3,0.1,7.2,0.1,7.1C0,6.9,0,6.8,0,6.7c0-0.1,0-0.3,0.1-0.4C0.1,6.2,0.2,6.1,0.3,6L6,0.3c0.1-0.1,0.2-0.2,0.3-0.2
	C6.4,0,6.5,0,6.7,0c0.1,0,0.3,0,0.4,0.1c0.1,0.1,0.2,0.1,0.3,0.2c0.1,0.1,0.2,0.2,0.2,0.3C7.7,0.7,7.7,0.9,7.7,1
	c0,0.1,0,0.3-0.1,0.4C7.6,1.5,7.5,1.6,7.4,1.7l-4,4h10.3c0.3,0,0.5,0.1,0.7,0.3c0.2,0.2,0.3,0.4,0.3,0.7c0,0.3-0.1,0.5-0.3,0.7
	c-0.2,0.2-0.4,0.3-0.7,0.3H3.4z"/>
</svg>